# xmcd CD database file
#
# Track frame offsets:
#	150
#	59057
#	87276
#	139911
#
# Disc length: 2516 seconds
#
# Revision: 0
# Processed by: cddbd v1.4PL0 Copyright (c) Steve Scherf et al.
# Submitted via: CDex 1.50Beta7
#
DISCID=3709d204
DTITLE=Beny Carter - Live And Well In Japan!
DYEAR=1900
DGENRE=Jazz
TTITLE0=Squatty Roo
TTITLE1=Tribute To Louis Armstrong
TTITLE2=Then There Eyes
TTITLE3=It Don't Mean A Thing
EXTD=
EXTT0=
EXTT1=
EXTT2=
EXTT3=
PLAYORDER=
